<?xml version="1.0" encoding="UTF-8" standalone="no"?>
<!-- Created with Inkscape (http://www.inkscape.org/) -->

<svg
   width="172.02116mm"
   height="146.48679mm"
   viewBox="0 0 172.02116 146.48679"
   version="1.1"
   id="svg1"
   xml:space="preserve"
   inkscape:version="1.4 (86a8ad7, 2024-10-11)"
   sodipodi:docname="Icon.svg"
   xmlns:inkscape="http://www.inkscape.org/namespaces/inkscape"
   xmlns:sodipodi="http://sodipodi.sourceforge.net/DTD/sodipodi-0.dtd"
   xmlns="http://www.w3.org/2000/svg"
   xmlns:svg="http://www.w3.org/2000/svg"><sodipodi:namedview
     id="namedview1"
     pagecolor="#505050"
     bordercolor="#eeeeee"
     borderopacity="1"
     inkscape:showpageshadow="0"
     inkscape:pageopacity="0"
     inkscape:pagecheckerboard="0"
     inkscape:deskcolor="#d1d1d1"
     inkscape:document-units="mm"
     inkscape:zoom="1.0426679"
     inkscape:cx="307.86409"
     inkscape:cy="271.41912"
     inkscape:window-width="1500"
     inkscape:window-height="938"
     inkscape:window-x="-6"
     inkscape:window-y="-6"
     inkscape:window-maximized="1"
     inkscape:current-layer="layer2"
     showgrid="false" /><defs
     id="defs1" /><g
     inkscape:groupmode="layer"
     id="layer2"
     inkscape:label="Vektor"
     style="display:inline"><g
       id="g4"
       style="display:none"
       sodipodi:insensitive="true"><path
         style="display:inline;fill:#b4a284;stroke-width:1"
         d="M 45.088754,68.692264 45.996582,13.012191 C 49.358729,2.3085021 57.478935,-0.46508991 68.087046,0.90782729 L 164.92196,59.613992 c 10.28951,9.511205 8.75259,18.529643 -0.30261,27.234819 L 68.312667,145.18432 c -9.803074,1.77413 -18.526389,0.95683 -22.418155,-11.45618 l 0.04655,-54.612592 c -0.814752,0.24981 -2.436018,0.06184 -2.443667,3.149267 l -0.03397,13.713669 c -0.0031,1.271269 0.06975,0.394734 -0.01407,0.56254 -0.82866,1.659108 -2.508653,3.472976 -4.363076,3.452161 -1.921643,-0.02157 -3.637905,-1.93142 -4.43979,-3.67789 -0.07333,-0.159708 0.0095,0.941629 0.0095,-0.527128 0,-0.175738 -0.223981,-9.909494 -0.132321,-14.106066 0.02291,-1.049143 0.06076,-0.565956 -0.07857,-0.791538 -0.786254,-1.272971 -2.299563,-2.36814 -3.795511,-2.396235 -1.542872,-0.02898 -3.096627,1.074922 -4.004604,2.322668 -0.135303,0.185933 -0.118891,-0.0844 -0.145784,0.674274 -0.107573,3.034692 -0.08253,24.73519 -0.08253,24.73519 0,0 -0.04775,0.45419 -0.1639,0.64207 -0.952997,1.54159 -2.300116,3.49571 -4.111419,3.55786 -1.881963,0.0646 -3.591901,-1.75394 -4.515142,-3.39515 -0.12293,-0.21853 -0.07418,-0.74853 -0.07418,-0.74853 l 0.212893,-24.756952 c 0,0 -0.006,-0.48817 -0.136323,-0.678572 -0.942507,-1.377396 -2.54951,-2.714292 -4.218416,-2.697189 -1.637466,0.01678 -3.31011,1.287417 -4.0838408,2.730649 -0.098014,0.182824 -0.00175,0.622315 -0.00175,0.622315 l -0.022796,9.962569 c 0,0 0.050721,0.510595 -0.071335,0.71773 C 8.256044,93.836961 6.4131578,95.485713 4.4939111,95.457906 2.7016009,95.431938 1.0825184,93.81049 0.16105096,92.272977 0.02126465,92.039736 0.04485816,91.46553 0.04485816,91.46553 L 0,56.610695 c 0,0 0.17289061,-0.383213 0.32375363,-0.521384 1.18874927,-1.088741 2.70430447,-2.158788 4.31613017,-2.181136 1.5571041,-0.02159 3.243212,0.783049 4.2264139,1.990672 0.1298896,0.159538 0.1443209,0.60007 0.1443209,0.60007 L 9.1271258,67.71845 c 0,0 0.00988,0.568336 0.1625934,0.789341 0.8973838,1.298644 2.4221198,2.533052 4.0006538,2.533915 1.664993,9.1e-4 3.282385,-1.294032 4.222691,-2.668085 0.128467,-0.187726 0.130874,-0.669756 0.130874,-0.669756 L 17.423716,47.798597 c 0,0 0.06335,-0.641291 0.249389,-0.884765 1.006972,-1.317864 2.607694,-2.5853 4.266055,-2.560783 1.666187,0.02463 3.270032,1.321308 4.20826,2.698447 0.129272,0.189745 0.133802,0.675667 0.133802,0.675667 l 0.04577,19.729352 c 0,0 -0.04725,0.521554 0.07495,0.735594 0.85419,1.496146 2.438818,3.051524 4.161581,3.064977 1.736833,0.01356 3.454492,-1.476682 4.243314,-3.02411 0.11755,-0.230597 -0.0068,-0.776461 -0.0068,-0.776461 l -0.3026,-32.526092 c 0,0 -0.23454,-0.932363 -0.01287,-1.307723 0.847247,-1.434642 2.735125,-2.326805 4.400699,-2.370248 1.592102,-0.04153 3.438846,0.715951 4.318967,2.043317 0.301379,0.454529 0.06887,1.634654 0.06887,1.634654 v 30.433142 z"
         id="path3"
         sodipodi:nodetypes="ccccccccscaaaccaaaccaaaccaaaccaaaccaaaccaaaccaaaccaaaccaaaccc" /><path
         style="display:inline;fill:#b4a284;stroke-width:1"
         d="m 46.203906,71.32448 c 1.530353,0.04523 3.970747,-0.238458 5.562411,-2.198052 V 51.811179 c 0,0 -0.05702,-0.478001 0,-0.583158 0.90151,-1.662514 2.796574,-2.851007 4.687678,-2.870922 1.813129,-0.01909 3.806604,1.286149 4.687679,2.870922 0.07992,0.143757 0,0.583158 0,0.583158 v 15.745213 c 0,0 -0.09925,0.64941 0,0.833726 0.772709,1.435033 2.474724,3.011467 4.104521,3.024077 1.61353,0.01248 3.328556,-1.609329 4.104522,-3.024077 0.10067,-0.183543 0,-0.833726 0,-0.833726 V 43.422703 c 0,0 -0.09447,-0.458132 0,-0.628015 0.812697,-1.461391 2.704727,-2.57754 4.375263,-2.601773 1.712303,-0.02484 3.513971,1.058207 4.375263,2.538334 0.105287,0.180934 0,0.628015 0,0.628015 v 24.197128 c 0,0 -0.128187,0.587147 0,0.833726 0.809346,1.55685 2.553981,3.024077 4.308638,3.024077 1.754657,0 3.499292,-1.467227 4.308638,-3.024077 0.128187,-0.246579 0,-0.833726 0,-0.833726 V 50.689724 c 0,0 -0.112048,-0.506347 0,-0.71773 0.773525,-1.459283 2.449054,-2.781208 4.100674,-2.781208 1.65162,0 3.327149,1.321925 4.100674,2.781208 0.112048,0.211383 0,0.71773 0,0.71773 V 95.17989 c 0,0 0.06826,0.315544 0,0.448582 -0.798292,1.555837 -2.512844,3.059486 -4.261528,3.059486 -1.748685,0 -3.463237,-1.503649 -4.261529,-3.059486 -0.06826,-0.133038 0,-0.448582 0,-0.448582 V 81.30476 c 0,0 0.07068,-0.338585 0,-0.470351 -0.797503,-1.486727 -2.52955,-2.43147 -4.216668,-2.43147 -1.687119,0 -3.419165,0.944743 -4.216669,2.43147 -0.07068,0.131766 0,0.470351 0,0.470351 v 21.42043 c 0,0 0.09441,0.44118 0,0.62802 -0.795781,1.57484 -2.497039,3.14007 -4.261522,3.14007 -1.764484,0 -3.465742,-1.56523 -4.261523,-3.14007 -0.09441,-0.18684 0,-0.62802 0,-0.62802 V 81.30476 c 0,0 0.08976,-0.314982 0,-0.470351 -0.811625,-1.404902 -2.594177,-2.43147 -4.21667,-2.43147 -1.622493,0 -3.405045,1.026568 -4.21667,2.43147 -0.08976,0.155369 0,0.470351 0,0.470351 v 30.38294 c 0,0 0.07802,0.37671 0,0.5383 -0.83853,1.73662 -2.602203,3.59778 -4.530675,3.59778 -1.928473,0 -3.692146,-1.86116 -4.530676,-3.59778 -0.07802,-0.16159 0,-0.5383 0,-0.5383 V 81.30476 c -0.634672,-2.632413 -3.415995,-2.836714 -5.741848,-2.901821 z"
         id="path4"
         sodipodi:nodetypes="cccaaaccaaaccaaaccaaaccaaaccaaaccaaaccaaaccaaaccaaacccc" /></g><g
       id="g6"
       style="display:inline"><path
         id="path5"
         style="display:inline;fill:#1d1d1b;stroke-width:1;fill-opacity:1"
         d="M 64.230188,0.59479574 C 55.523357,0.35227081 48.938554,3.6463979 45.996676,13.012126 l -0.907955,55.680322 c -0.66876,-0.804247 -1.752258,0.04987 -1.88464,-3.328996 V 34.930168 c 0,0 0.08655,-0.404735 0,-0.576193 -0.784515,-1.554143 -2.461142,-3.101619 -4.202069,-3.101619 -1.740927,0 -3.417554,1.547476 -4.202069,3.101619 -0.08655,0.171458 0,0.576193 0,0.576193 v 32.52618 c 0,0 0.11158,0.517429 0,0.735872 -0.792851,1.55219 -2.583474,3.04784 -4.326349,3.064929 -1.791784,0.01757 -3.495643,-1.47725 -4.32635,-3.064929 -0.113716,-0.217339 0,-0.735872 0,-0.735872 V 47.269466 c 0,0 0.05806,-0.252222 0,-0.355534 -0.804513,-1.431446 -2.675115,-2.54288 -4.317049,-2.561084 -1.704444,-0.0189 -3.465485,1.084491 -4.317049,2.561084 -0.05921,0.102662 0,0.355534 0,0.355534 v 20.448881 c 0,0 0.07028,0.317961 0,0.450766 -0.796314,1.504741 -2.621151,2.854299 -4.32351,2.872546 -1.758165,0.01884 -3.4844834,-1.327381 -4.3235105,-2.872546 -0.0717,-0.132044 0,-0.450766 0,-0.450766 V 56.610498 c 0,0 0.091313,-0.37353 0,-0.521415 -0.8525493,-1.380736 -2.7297114,-2.180746 -4.3524475,-2.180746 -1.6227361,0 -3.4998982,0.80001 -4.35244753,2.180746 -0.09131327,0.147885 0,0.521415 0,0.521415 v 35.257526 c 0,0 -0.0480336,0.221618 0,0.31498 0.85893613,1.669491 2.70517743,3.274735 4.58266793,3.274735 1.8774905,0 3.7237318,-1.605244 4.5826679,-3.274735 0.048034,-0.09336 0,-0.31498 0,-0.31498 V 81.2 c 0,0 -0.056082,-0.249395 0,-0.352738 0.7869257,-1.450085 2.5000237,-2.69751 4.1498717,-2.69751 1.649849,0 3.362946,1.247425 4.149872,2.69751 0.05608,0.103343 0,0.352738 0,0.352738 v 25.02659 c 0,0 -0.09333,0.44931 0,0.64182 0.835201,1.72287 2.594649,3.55792 4.509284,3.55792 1.914635,0 3.674083,-1.83505 4.509284,-3.55792 0.09333,-0.19251 0,-0.64182 0,-0.64182 0,0 -0.10757,-21.891898 0,-24.92659 0.02689,-0.758674 -0.06727,-0.290623 0,-0.40933 0.766428,-1.352429 2.44629,-2.396236 4.000791,-2.396236 1.554502,0 3.234364,1.043807 4.000792,2.396236 0.06727,0.118707 0.02291,-0.639813 0,0.40933 -0.09166,4.196572 0,14.407557 0,14.583295 -0.0084,0.319267 -0.07837,0.380897 0,0.544669 0.817692,1.70881 2.527441,3.568448 4.42557,3.565416 1.890618,-0.003 3.607878,-1.856606 4.42557,-3.565416 0.07837,-0.163772 0.01276,-0.161546 0,-0.544669 V 82.264746 c 0.0076,-3.087427 1.62851,-2.899352 2.443262,-3.149162 l -0.04651,54.612686 c 3.891766,12.41301 12.615196,13.23028 22.41827,11.45615 L 164.61941,86.848962 c 9.0552,-8.705176 10.59182,-17.723825 0.30231,-27.23503 L 68.0868,0.90795492 C 66.760786,0.73634027 65.474021,0.62944215 64.230188,0.59479574 Z M 73.725732,40.192896 c 1.712303,-0.02484 3.514152,1.058219 4.375444,2.538346 0.105287,0.180934 0,0.627869 0,0.627869 V 67.5566 c 0,0 -0.128187,0.586962 0,0.833541 0.809346,1.55685 2.554124,3.024105 4.308781,3.024105 1.754657,0 3.499435,-1.467255 4.308781,-3.024105 0.128187,-0.246579 0,-0.833541 0,-0.833541 V 50.689929 c 0,0 -0.112048,-0.506402 0,-0.717785 0.773525,-1.459283 2.448905,-2.781226 4.100525,-2.781226 1.65162,0 3.327,1.321943 4.100525,2.781226 0.112048,0.211383 0,0.717785 0,0.717785 V 95.17972 c 0,0 0.06826,0.315513 0,0.448551 -0.798292,1.555837 -2.512555,3.059762 -4.261239,3.059762 -1.748685,0 -3.463463,-1.503925 -4.261755,-3.059762 -0.06826,-0.133038 0,-0.448551 0,-0.448551 V 81.304598 c 0,0 0.07068,-0.33849 0,-0.470256 -0.797503,-1.486727 -2.529679,-2.431376 -4.216797,-2.431376 -1.687119,0 -3.418776,0.944649 -4.21628,2.431376 -0.07068,0.131766 0,0.470256 0,0.470256 V 102.725 c 0,0 0.09441,0.44154 0,0.62838 -0.795781,1.57484 -2.497273,3.13986 -4.261756,3.13986 -1.764484,0 -3.465974,-1.56502 -4.261755,-3.13986 -0.09441,-0.18684 0,-0.62838 0,-0.62838 V 81.304598 c 0,0 0.08976,-0.314887 0,-0.470256 -0.811625,-1.404902 -2.593787,-2.431376 -4.21628,-2.431376 -1.622493,0 -3.405172,1.026474 -4.216797,2.431376 -0.08976,0.155369 0,0.470256 0,0.470256 v 30.383162 c 0,0 0.07802,0.37687 0,0.53846 -0.83853,1.73662 -2.602001,3.59772 -4.530473,3.59772 -1.928473,0 -3.692459,-1.8611 -4.530989,-3.59772 -0.07802,-0.16159 0,-0.53846 0,-0.53846 V 81.304598 c -0.634672,-2.632413 -3.415916,-2.836525 -5.741769,-2.901632 v -7.078637 c 1.530353,0.04523 3.970787,-0.238205 5.562451,-2.197799 V 51.811308 c 0,0 -0.05702,-0.47827 0,-0.583427 0.90151,-1.662514 2.796465,-2.850711 4.687569,-2.870626 1.813129,-0.01909 3.806495,1.285853 4.68757,2.870626 0.07992,0.143757 0,0.583427 0,0.583427 V 67.5566 c 0,0 -0.09925,0.649225 0,0.833541 0.772709,1.435033 2.474862,3.011495 4.104659,3.024105 1.61353,0.01248 3.328693,-1.609357 4.104659,-3.024105 0.10067,-0.183543 0,-0.833541 0,-0.833541 V 43.422673 c 0,0 -0.09447,-0.457986 0,-0.627869 0.812697,-1.461391 2.70439,-2.577675 4.374926,-2.601908 z"
         sodipodi:nodetypes="sccccaaaccaaaccaaaccaaaccaaaccaaaccaaaccaaaccaaaccaaaccccccccsssccsssccsssccsssccsssccsssccssscccsscccccccsscccsscccs" /></g></g></svg>
